ffmpeg started on 2016-12-02 at 21:35:18
Report written to "Output/x264/results/ffmpeg/old_town_cross_2160p50veryslow12000k.log"
Command line:
Tools/ffmpeg/ffmpeg -benchmark -y -i Input/y4m/old_town_cross_2160p50.y4m -c:v libx264 -preset veryslow -b:v 12000k -an Output/x264/encoded/old_town_cross_2160p50veryslow12000k.mkv
ffmpeg version N-82227-gdb23fde Copyright (c) 2000-2016 the FFmpeg developers
  built with gcc 5.4.0 (Ubuntu 5.4.0-6ubuntu1~16.04.2) 20160609
  configuration: --prefix=/home/jaroslav/ffmpeg_build --pkg-config-flags=--static --extra-cflags=-I/home/jaroslav/ffmpeg_build/include --extra-ldflags=-L/home/jaroslav/ffmpeg_build/lib --bindir=/home/jaroslav/bin --enable-gpl --enable-libass --enable-libfdk-aac --enable-libfreetype --enable-libmp3lame --enable-libopus --enable-libtheora --enable-libvorbis --enable-libvpx --enable-libx264 --enable-libx265 --enable-nvenc --enable-libmfx --enable-libxvid --enable-libgsm --enable-libopencore-amrnb --enable-version3 --enable-nonfree
  libavutil      55. 35.100 / 55. 35.100
  libavcodec     57. 66.101 / 57. 66.101
  libavformat    57. 57.100 / 57. 57.100
  libavdevice    57.  2.100 / 57.  2.100
  libavfilter     6. 66.100 /  6. 66.100
  libswscale      4.  3.100 /  4.  3.100
  libswresample   2.  4.100 /  2.  4.100
  libpostproc    54.  2.100 / 54.  2.100
Input #0, yuv4mpegpipe, from 'Input/y4m/old_town_cross_2160p50.y4m':
  Duration: 00:00:10.00, start: 0.000000, bitrate: 4976642 kb/s
    Stream #0:0: Video: rawvideo (I420 / 0x30323449), yuv420p(progressive), 3840x2160, SAR 1:1 DAR 16:9, 50 fps, 50 tbr, 50 tbn, 50 tbc
[libx264 @ 0x3cf5120] using SAR=1/1
[libx264 @ 0x3cf5120] DPB size (16 frames, 518400 mbs) > level limit (5 frames, 184320 mbs)
[libx264 @ 0x3cf5120] using cpu capabilities: MMX2 SSE2Fast SSSE3 SSE4.2 AVX FMA3 AVX2 LZCNT BMI2
[libx264 @ 0x3cf5120] profile High, level 5.2
[libx264 @ 0x3cf5120] 264 - core 148 - H.264/MPEG-4 AVC codec - Copyleft 2003-2016 - http://www.videolan.org/x264.html - options: cabac=1 ref=16 deblock=1:0:0 analyse=0x3:0x133 me=umh subme=10 psy=1 psy_rd=1.00:0.00 mixed_ref=1 me_range=24 chroma_me=1 trellis=2 8x8dct=1 cqm=0 deadzone=21,11 fast_pskip=1 chroma_qp_offset=-2 threads=6 lookahead_threads=1 sliced_threads=0 nr=0 decimate=1 interlaced=0 bluray_compat=0 constrained_intra=0 bframes=8 b_pyramid=2 b_adapt=2 b_bias=0 direct=3 weightb=1 open_gop=0 weightp=2 keyint=250 keyint_min=25 scenecut=40 intra_refresh=0 rc_lookahead=60 rc=abr mbtree=1 bitrate=12000 ratetol=1.0 qcomp=0.60 qpmin=0 qpmax=69 qpstep=4 ip_ratio=1.40 aq=1:1.00
Output #0, matroska, to 'Output/x264/encoded/old_town_cross_2160p50veryslow12000k.mkv':
  Metadata:
    encoder         : Lavf57.57.100
    Stream #0:0: Video: h264 (libx264) (H264 / 0x34363248), yuv420p, 3840x2160 [SAR 1:1 DAR 16:9], q=-1--1, 12000 kb/s, 50 fps, 1k tbn, 50 tbc
    Metadata:
      encoder         : Lavc57.66.101 libx264
    Side data:
      cpb: bitrate max/min/avg: 0/0/12000000 buffer size: 0 vbv_delay: -1
Stream mapping:
  Stream #0:0 -> #0:0 (rawvideo (native) -> h264 (libx264))
Press [q] to stop, [?] for help
frame=   60 fps=0.0 q=0.0 size=       0kB time=00:00:00.00 bitrate=N/A speed=   0x    frame=   72 fps=8.0 q=0.0 size=       0kB time=00:00:00.00 bitrate=N/A speed=   0x    frame=   77 fps=6.3 q=32.0 size=       1kB time=-00:00:00.01 bitrate=N/A speed=N/A    frame=   78 fps=6.0 q=32.0 size=       1kB time=00:00:00.00 bitrate=5888.0kbits/s speed=7.69e-05x    frame=   80 fps=5.8 q=32.0 size=       1kB time=00:00:00.04 bitrate= 143.6kbits/s speed=0.00299x    frame=   84 fps=5.4 q=34.0 size=       1kB time=00:00:00.12 bitrate=  48.7kbits/s speed=0.00785x    frame=   86 fps=5.4 q=36.0 size=       1kB time=00:00:00.16 bitrate=  36.6kbits/s speed=0.0101x    frame=   89 fps=5.3 q=39.0 size=       1kB time=00:00:00.22 bitrate=  26.6kbits/s speed=0.0132x    frame=   90 fps=5.2 q=46.0 size=       1kB time=00:00:00.24 bitrate=  24.4kbits/s speed=0.0138x    frame=   96 fps=5.3 q=44.0 size=       1kB time=00:00:00.36 bitrate=  16.3kbits/s speed=0.0198x    frame=   97 fps=5.1 q=44.0 size=       1kB time=00:00:00.38 bitrate=  15.5kbits/s speed=0.0201x    frame=  100 fps=4.9 q=44.0 size=       1kB time=00:00:00.44 bitrate=  13.4kbits/s speed=0.0216x    frame=  105 fps=4.9 q=43.0 size=       1kB time=00:00:00.54 bitrate=  10.9kbits/s speed=0.0253x    frame=  106 fps=4.8 q=43.0 size=       1kB time=00:00:00.56 bitrate=  10.5kbits/s speed=0.0252x    frame=  108 fps=4.7 q=41.0 size=       1kB time=00:00:00.60 bitrate=   9.8kbits/s speed=0.0261x    frame=  113 fps=4.6 q=41.0 size=       1kB time=00:00:00.70 bitrate=   8.4kbits/s speed=0.0283x    frame=  114 fps=4.5 q=41.0 size=       1kB time=00:00:00.72 bitrate=   8.2kbits/s speed=0.0283x    frame=  117 fps=4.5 q=40.0 size=       1kB time=00:00:00.78 bitrate=   7.5kbits/s speed=0.03x    frame=  120 fps=4.4 q=40.0 size=       1kB time=00:00:00.84 bitrate=   7.0kbits/s speed=0.031x    frame=  121 fps=4.3 q=39.0 size=       1kB time=00:00:00.86 bitrate=   6.8kbits/s speed=0.0308x    frame=  122 fps=4.2 q=39.0 size=       1kB time=00:00:00.88 bitrate=   6.7kbits/s speed=0.0306x    frame=  123 fps=4.2 q=39.0 size=       1kB time=00:00:00.90 bitrate=   6.5kbits/s speed=0.0305x    frame=  127 fps=4.2 q=39.0 size=       1kB time=00:00:00.98 bitrate=   6.0kbits/s speed=0.0322x    frame=  128 fps=4.1 q=38.0 size=       1kB time=00:00:01.00 bitrate=   5.9kbits/s speed=0.0318x    frame=  130 fps=4.0 q=38.0 size=       1kB time=00:00:01.04 bitrate=   5.7kbits/s speed=0.0317x    frame=  131 fps=3.9 q=38.0 size=       1kB time=00:00:01.06 bitrate=   5.5kbits/s speed=0.0316x    frame=  132 fps=3.9 q=38.0 size=       1kB time=00:00:01.08 bitrate=   5.4kbits/s speed=0.0317x    frame=  134 fps=3.9 q=37.0 size=       1kB time=00:00:01.12 bitrate=   5.3kbits/s speed=0.0323x    frame=  136 fps=3.8 q=37.0 size=       1kB time=00:00:01.16 bitrate=   5.1kbits/s speed=0.0325x    frame=  137 fps=3.8 q=37.0 size=       1kB time=00:00:01.18 bitrate=   5.0kbits/s speed=0.0324x    frame=  138 fps=3.7 q=37.0 size=       1kB time=00:00:01.20 bitrate=   4.9kbits/s speed=0.0322x    frame=  139 fps=3.6 q=37.0 size=       1kB time=00:00:01.22 bitrate=   4.8kbits/s speed=0.0318x    frame=  141 fps=3.6 q=37.0 size=       1kB time=00:00:01.26 bitrate=   4.7kbits/s speed=0.0321x    frame=  144 fps=3.6 q=37.0 size=       1kB time=00:00:01.32 bitrate=   4.5kbits/s speed=0.0329x    frame=  145 fps=3.5 q=37.0 size=       1kB time=00:00:01.34 bitrate=   4.4kbits/s speed=0.032x    frame=  147 fps=3.5 q=36.0 size=       1kB time=00:00:01.38 bitrate=   4.3kbits/s speed=0.0325x    frame=  148 fps=3.4 q=36.0 size=       1kB time=00:00:01.40 bitrate=   4.2kbits/s speed=0.0323x    frame=  149 fps=3.4 q=36.0 size=       1kB time=00:00:01.42 bitrate=   4.1kbits/s speed=0.0323x    frame=  153 fps=3.4 q=36.0 size=       1kB time=00:00:01.50 bitrate=   3.9kbits/s speed=0.0329x    frame=  154 fps=3.3 q=36.0 size=       1kB time=00:00:01.52 bitrate=   3.9kbits/s speed=0.0325x    frame=  155 fps=3.3 q=36.0 size=       1kB time=00:00:01.54 bitrate=   3.8kbits/s speed=0.0324x    frame=  157 fps=3.2 q=36.0 size=       1kB time=00:00:01.58 bitrate=   3.7kbits/s speed=0.0323x    frame=  158 fps=3.2 q=36.0 size=       1kB time=00:00:01.60 bitrate=   3.7kbits/s speed=0.0324x    frame=  161 fps=3.2 q=35.0 size=       1kB time=00:00:01.66 bitrate=   3.5kbits/s speed=0.0328x    frame=  163 fps=3.1 q=35.0 size=       1kB time=00:00:01.70 bitrate=   3.5kbits/s speed=0.0323x    frame=  166 fps=3.1 q=35.0 size=       1kB time=00:00:01.76 bitrate=   3.3kbits/s speed=0.0324x    frame=  167 fps=3.0 q=35.0 size=       1kB time=00:00:01.78 bitrate=   3.3kbits/s speed=0.0323x    frame=  170 fps=3.1 q=35.0 size=       1kB time=00:00:01.84 bitrate=   3.2kbits/s speed=0.0331x    frame=  172 fps=3.0 q=35.0 size=       1kB time=00:00:01.88 bitrate=   3.1kbits/s speed=0.0327x    frame=  173 fps=3.0 q=35.0 size=       1kB time=00:00:01.90 bitrate=   3.1kbits/s speed=0.0325x    frame=  174 fps=2.9 q=35.0 size=       1kB time=00:00:01.92 bitrate=   3.1kbits/s speed=0.0325x    frame=  175 fps=2.9 q=35.0 size=       1kB time=00:00:01.94 bitrate=   3.0kbits/s speed=0.0322x    frame=  177 fps=2.9 q=35.0 size=       1kB time=00:00:01.98 bitrate=   3.0kbits/s speed=0.0325x    frame=  181 fps=2.8 q=34.0 size=       1kB time=00:00:02.06 bitrate=   2.9kbits/s speed=0.0323x    frame=  184 fps=2.8 q=34.0 size=       1kB time=00:00:02.12 bitrate=   2.8kbits/s speed=0.0321x    frame=  186 fps=2.8 q=34.0 size=       1kB time=00:00:02.16 bitrate=   2.7kbits/s speed=0.0323x    frame=  190 fps=2.7 q=34.0 size=       1kB time=00:00:02.24 bitrate=   2.6kbits/s speed=0.0324x    frame=  191 fps=2.7 q=34.0 size=       1kB time=00:00:02.26 bitrate=   2.6kbits/s speed=0.0323x    frame=  193 fps=2.7 q=34.0 size=       1kB time=00:00:02.30 bitrate=   2.6kbits/s speed=0.032x    frame=  195 fps=2.7 q=34.0 size=       1kB time=00:00:02.34 bitrate=   2.5kbits/s speed=0.0321x    frame=  199 fps=2.6 q=34.0 size=       1kB time=00:00:02.42 bitrate=   2.4kbits/s speed=0.032x    frame=  202 fps=2.6 q=34.0 size=       1kB time=00:00:02.48 bitrate=   2.4kbits/s speed=0.032x    frame=  204 fps=2.6 q=34.0 size=       1kB time=00:00:02.52 bitrate=   2.3kbits/s speed=0.0322x    frame=  205 fps=2.6 q=34.0 size=       1kB time=00:00:02.54 bitrate=   2.3kbits/s speed=0.0321x    frame=  208 fps=2.6 q=34.0 size=       1kB time=00:00:02.60 bitrate=   2.3kbits/s speed=0.0321x    frame=  209 fps=2.5 q=34.0 size=       1kB time=00:00:02.62 bitrate=   2.2kbits/s speed=0.0317x    frame=  211 fps=2.5 q=34.0 size=       1kB time=00:00:02.66 bitrate=   2.2kbits/s speed=0.0318x    frame=  215 fps=2.5 q=34.0 size=       1kB time=00:00:02.74 bitrate=   2.1kbits/s speed=0.0316x    frame=  218 fps=2.5 q=33.0 size=       1kB time=00:00:02.80 bitrate=   2.1kbits/s speed=0.0316x    frame=  220 fps=2.5 q=34.0 size=       1kB time=00:00:02.84 bitrate=   2.1kbits/s speed=0.0318x    frame=  224 fps=2.4 q=33.0 size=       1kB time=00:00:02.92 bitrate=   2.0kbits/s speed=0.0316x    frame=  226 fps=2.4 q=33.0 size=       1kB time=00:00:02.96 bitrate=   2.0kbits/s speed=0.0317x    frame=  228 fps=2.4 q=33.0 size=       1kB time=00:00:03.00 bitrate=   2.0kbits/s speed=0.0318x    frame=  229 fps=2.4 q=33.0 size=       1kB time=00:00:03.02 bitrate=   1.9kbits/s speed=0.0318x    frame=  230 fps=2.4 q=33.0 size=       1kB time=00:00:03.04 bitrate=   1.9kbits/s speed=0.0316x    frame=  233 fps=2.4 q=34.0 size=       1kB time=00:00:03.10 bitrate=   1.9kbits/s speed=0.0315x    frame=  234 fps=2.4 q=33.0 size=       1kB time=00:00:03.12 bitrate=   1.9kbits/s speed=0.0315x    frame=  236 fps=2.4 q=33.0 size=       1kB time=00:00:03.16 bitrate=   1.9kbits/s speed=0.0317x    frame=  238 fps=2.4 q=33.0 size=       1kB time=00:00:03.20 bitrate=   1.8kbits/s speed=0.0319x    frame=  239 fps=2.3 q=33.0 size=       1kB time=00:00:03.22 bitrate=   1.8kbits/s speed=0.0315x    frame=  240 fps=2.3 q=33.0 size=       1kB time=00:00:03.24 bitrate=   1.8kbits/s speed=0.0314x    frame=  245 fps=2.3 q=33.0 size=       1kB time=00:00:03.34 bitrate=   1.8kbits/s speed=0.0319x    frame=  246 fps=2.3 q=33.0 size=       1kB time=00:00:03.36 bitrate=   1.8kbits/s speed=0.0318x    frame=  247 fps=2.3 q=33.0 size=       1kB time=00:00:03.38 bitrate=   1.7kbits/s speed=0.0313x    frame=  249 fps=2.3 q=33.0 size=       1kB time=00:00:03.42 bitrate=   1.7kbits/s speed=0.0315x    frame=  251 fps=2.3 q=33.0 size=       1kB time=00:00:03.46 bitrate=   1.7kbits/s speed=0.0316x    frame=  253 fps=2.3 q=33.0 size=       1kB time=00:00:03.50 bitrate=   1.7kbits/s speed=0.0316x    frame=  255 fps=2.3 q=33.0 size=       1kB time=00:00:03.54 bitrate=   1.7kbits/s speed=0.0316x    frame=  257 fps=2.3 q=33.0 size=       1kB time=00:00:03.58 bitrate=   1.6kbits/s speed=0.0316x    frame=  258 fps=2.3 q=33.0 size=       1kB time=00:00:03.60 bitrate=   1.6kbits/s speed=0.0316x    frame=  259 fps=2.3 q=33.0 size=       1kB time=00:00:03.62 bitrate=   1.6kbits/s speed=0.0316x    frame=  260 fps=2.2 q=33.0 size=       1kB time=00:00:03.64 bitrate=   1.6kbits/s speed=0.0314x    frame=  262 fps=2.2 q=33.0 size=       1kB time=00:00:03.68 bitrate=   1.6kbits/s speed=0.0315x    frame=  265 fps=2.3 q=33.0 size=    5125kB time=00:00:03.74 bitrate=11222.9kbits/s speed=0.0319x    frame=  266 fps=2.2 q=33.0 size=    5125kB time=00:00:03.76 bitrate=11163.2kbits/s speed=0.0315x    frame=  267 fps=2.2 q=33.0 size=    5125kB time=00:00:03.78 bitrate=11104.1kbits/s speed=0.0315x    frame=  269 fps=2.2 q=33.0 size=    5125kB time=00:00:03.82 bitrate=10987.9kbits/s speed=0.0313x    frame=  271 fps=2.2 q=33.0 size=    5125kB time=00:00:03.86 bitrate=10874.1kbits/s speed=0.0315x    frame=  275 fps=2.2 q=33.0 size=    5125kB time=00:00:03.94 bitrate=10653.3kbits/s speed=0.0315x    frame=  276 fps=2.2 q=33.0 size=    5125kB time=00:00:03.96 bitrate=10599.5kbits/s speed=0.0315x    frame=  278 fps=2.2 q=33.0 size=    5125kB time=00:00:04.00 bitrate=10493.6kbits/s speed=0.0314x    frame=  279 fps=2.2 q=33.0 size=    5125kB time=00:00:04.02 bitrate=10441.4kbits/s speed=0.0315x    frame=  282 fps=2.2 q=33.0 size=    5125kB time=00:00:04.08 bitrate=10287.8kbits/s speed=0.0317x    frame=  284 fps=2.2 q=33.0 size=    5125kB time=00:00:04.12 bitrate=10188.0kbits/s speed=0.0316x    frame=  285 fps=2.2 q=33.0 size=    5125kB time=00:00:04.14 bitrate=10138.8kbits/s speed=0.0315x    frame=  287 fps=2.2 q=33.0 size=    5125kB time=00:00:04.18 bitrate=10041.8kbits/s speed=0.0316x    frame=  288 fps=2.2 q=33.0 size=    5125kB time=00:00:04.20 bitrate=9994.0kbits/s speed=0.0315x    frame=  290 fps=2.2 q=33.0 size=    5125kB time=00:00:04.24 bitrate=9899.7kbits/s speed=0.0316x    frame=  292 fps=2.2 q=33.0 size=    5125kB time=00:00:04.28 bitrate=9807.2kbits/s speed=0.0316x    frame=  293 fps=2.2 q=33.0 size=    5125kB time=00:00:04.30 bitrate=9761.6kbits/s speed=0.0316x    frame=  294 fps=2.2 q=33.0 size=    5125kB time=00:00:04.32 bitrate=9716.4kbits/s speed=0.0317x    frame=  295 fps=2.1 q=33.0 size=    5125kB time=00:00:04.34 bitrate=9671.7kbits/s speed=0.0314x    frame=  297 fps=2.1 q=33.0 size=    5125kB time=00:00:04.38 bitrate=9583.4kbits/s speed=0.0315x    frame=  301 fps=2.1 q=33.0 size=    5125kB time=00:00:04.46 bitrate=9411.5kbits/s speed=0.0316x    frame=  303 fps=2.1 q=33.0 size=    5125kB time=00:00:04.50 bitrate=9327.9kbits/s speed=0.0313x    frame=  305 fps=2.1 q=33.0 size=    5125kB time=00:00:04.54 bitrate=9245.7kbits/s speed=0.0314x    frame=  309 fps=2.1 q=33.0 size=    5125kB time=00:00:04.62 bitrate=9085.6kbits/s speed=0.0315x    frame=  310 fps=2.1 q=33.0 size=    5125kB time=00:00:04.64 bitrate=9046.5kbits/s speed=0.0313x    frame=  312 fps=2.1 q=33.0 size=    5125kB time=00:00:04.68 bitrate=8969.2kbits/s speed=0.0314x    frame=  313 fps=2.1 q=33.0 size=    5125kB time=00:00:04.70 bitrate=8931.0kbits/s speed=0.031x    frame=  318 fps=2.0 q=33.0 size=    5125kB time=00:00:04.80 bitrate=8745.0kbits/s speed=0.0309x    frame=  320 fps=2.1 q=30.0 size=    5125kB time=00:00:04.84 bitrate=8672.7kbits/s speed=0.031x    frame=  324 fps=2.1 q=34.0 size=    5125kB time=00:00:04.92 bitrate=8531.7kbits/s speed=0.0312x    frame=  326 fps=2.0 q=34.0 size=    6694kB time=00:00:04.96 bitrate=11053.9kbits/s speed=0.0311x    frame=  329 fps=2.1 q=34.0 size=    6694kB time=00:00:05.02 bitrate=10921.8kbits/s speed=0.0314x    frame=  332 fps=2.1 q=34.0 size=    6694kB time=00:00:05.08 bitrate=10792.9kbits/s speed=0.0317x    frame=  333 fps=2.1 q=34.0 size=    6694kB time=00:00:05.10 bitrate=10750.5kbits/s speed=0.0316x    frame=  334 fps=2.1 q=34.0 size=    6694kB time=00:00:05.12 bitrate=10708.6kbits/s speed=0.0316x    frame=  336 fps=2.1 q=34.0 size=    6694kB time=00:00:05.16 bitrate=10625.6kbits/s speed=0.0316x    frame=  339 fps=2.1 q=34.0 size=    6694kB time=00:00:05.22 bitrate=10503.4kbits/s speed=0.0319x    frame=  342 fps=2.1 q=34.0 size=    6694kB time=00:00:05.28 bitrate=10384.1kbits/s speed=0.032x    frame=  345 fps=2.1 q=34.0 size=    6694kB time=00:00:05.34 bitrate=10267.5kbits/s speed=0.032x    frame=  349 fps=2.1 q=34.0 size=    6694kB time=00:00:05.42 bitrate=10115.9kbits/s speed=0.0324x    frame=  351 fps=2.1 q=34.0 size=    6694kB time=00:00:05.46 bitrate=10041.8kbits/s speed=0.0322x    frame=  354 fps=2.1 q=34.0 size=    6694kB time=00:00:05.52 bitrate=9932.7kbits/s speed=0.0323x    frame=  356 fps=2.1 q=34.0 size=    6694kB time=00:00:05.56 bitrate=9861.3kbits/s speed=0.0324x    frame=  359 fps=2.1 q=34.0 size=    6694kB time=00:00:05.62 bitrate=9756.0kbits/s speed=0.0326x    frame=  360 fps=2.1 q=34.0 size=    6694kB time=00:00:05.64 bitrate=9721.4kbits/s speed=0.0324x    frame=  363 fps=2.1 q=34.0 size=    6694kB time=00:00:05.70 bitrate=9619.1kbits/s speed=0.0323x    frame=  365 fps=2.1 q=34.0 size=    6694kB time=00:00:05.74 bitrate=9552.1kbits/s speed=0.0324x    frame=  369 fps=2.1 q=34.0 size=    6694kB time=00:00:05.82 bitrate=9420.8kbits/s speed=0.0326x    frame=  370 fps=2.1 q=34.0 size=    6694kB time=00:00:05.84 bitrate=9388.5kbits/s speed=0.0326x    frame=  372 fps=2.1 q=34.0 size=    6694kB time=00:00:05.88 bitrate=9324.7kbits/s speed=0.0326x    frame=  373 fps=2.1 q=34.0 size=    6694kB time=00:00:05.90 bitrate=9293.1kbits/s speed=0.0326x    frame=  374 fps=2.1 q=34.0 size=    6694kB time=00:00:05.92 bitrate=9261.7kbits/s speed=0.0326x    frame=  375 fps=2.1 q=34.0 size=    6694kB time=00:00:05.94 bitrate=9230.5kbits/s speed=0.0326x    frame=  376 fps=2.1 q=34.0 size=    6694kB time=00:00:05.96 bitrate=9199.5kbits/s speed=0.0326x    frame=  377 fps=2.0 q=34.0 size=    6694kB time=00:00:05.98 bitrate=9168.8kbits/s speed=0.0324x    frame=  379 fps=2.0 q=34.0 size=    6694kB time=00:00:06.02 bitrate=9107.9kbits/s speed=0.0324x    frame=  382 fps=2.0 q=34.0 size=    6694kB time=00:00:06.08 bitrate=9018.0kbits/s speed=0.0326x    frame=  383 fps=2.0 q=34.0 size=    6694kB time=00:00:06.10 bitrate=8988.4kbits/s speed=0.0325x    frame=  386 fps=2.0 q=34.0 size=    6694kB time=00:00:06.16 bitrate=8900.9kbits/s speed=0.0324x    frame=  387 fps=2.0 q=34.0 size=    6694kB time=00:00:06.18 bitrate=8872.1kbits/s speed=0.0325x    frame=  388 fps=2.0 q=34.0 size=    6694kB time=00:00:06.20 bitrate=8843.5kbits/s speed=0.0325x    frame=  389 fps=2.0 q=34.0 size=    6694kB time=00:00:06.22 bitrate=8815.1kbits/s speed=0.0324x    frame=  391 fps=2.0 q=34.0 size=    6694kB time=00:00:06.26 bitrate=8758.7kbits/s speed=0.0323x    frame=  392 fps=2.0 q=34.0 size=    6694kB time=00:00:06.28 bitrate=8730.9kbits/s speed=0.0323x    frame=  395 fps=2.0 q=34.0 size=    6694kB time=00:00:06.34 bitrate=8648.2kbits/s speed=0.0325x    frame=  397 fps=2.0 q=34.0 size=    6694kB time=00:00:06.38 bitrate=8594.0kbits/s speed=0.0324x    frame=  398 fps=2.0 q=34.0 size=    6694kB time=00:00:06.40 bitrate=8567.2kbits/s speed=0.0323x    frame=  400 fps=2.0 q=34.0 size=    6694kB time=00:00:06.44 bitrate=8514.0kbits/s speed=0.0323x    frame=  401 fps=2.0 q=34.0 size=    6694kB time=00:00:06.46 bitrate=8487.6kbits/s speed=0.0323x    frame=  403 fps=2.0 q=34.0 size=    6694kB time=00:00:06.50 bitrate=8435.4kbits/s speed=0.0324x    frame=  406 fps=2.0 q=34.0 size=    6694kB time=00:00:06.56 bitrate=8358.3kbits/s speed=0.0323x    frame=  407 fps=2.0 q=34.0 size=    6694kB time=00:00:06.58 bitrate=8332.9kbits/s speed=0.0323x    frame=  409 fps=2.0 q=34.0 size=    6694kB time=00:00:06.62 bitrate=8282.5kbits/s speed=0.0322x    frame=  411 fps=2.0 q=34.0 size=    6694kB time=00:00:06.66 bitrate=8232.8kbits/s speed=0.0323x    frame=  415 fps=2.0 q=34.0 size=    6694kB time=00:00:06.74 bitrate=8135.1kbits/s speed=0.0323x    frame=  416 fps=2.0 q=34.0 size=    6694kB time=00:00:06.76 bitrate=8111.0kbits/s speed=0.0322x    frame=  418 fps=2.0 q=34.0 size=    6694kB time=00:00:06.80 bitrate=8063.3kbits/s speed=0.0322x    frame=  419 fps=2.0 q=34.0 size=    6694kB time=00:00:06.82 bitrate=8039.7kbits/s speed=0.0322x    frame=  422 fps=2.0 q=34.0 size=    6694kB time=00:00:06.88 bitrate=7969.6kbits/s speed=0.0324x    frame=  424 fps=2.0 q=34.0 size=    6694kB time=00:00:06.92 bitrate=7923.5kbits/s speed=0.0322x    frame=  425 fps=2.0 q=34.0 size=    6694kB time=00:00:06.94 bitrate=7900.7kbits/s speed=0.0322x    frame=  427 fps=2.0 q=34.0 size=    6694kB time=00:00:06.98 bitrate=7855.4kbits/s speed=0.0321x    frame=  429 fps=2.0 q=34.0 size=    6694kB time=00:00:07.02 bitrate=7810.6kbits/s speed=0.0322x    frame=  433 fps=2.0 q=34.0 size=    6694kB time=00:00:07.10 bitrate=7722.6kbits/s speed=0.0321x    frame=  435 fps=2.0 q=34.0 size=    6694kB time=00:00:07.14 bitrate=7679.4kbits/s speed=0.0322x    frame=  436 fps=1.9 q=34.0 size=    6694kB time=00:00:07.16 bitrate=7657.9kbits/s speed=0.032x    frame=  438 fps=2.0 q=34.0 size=    6694kB time=00:00:07.20 bitrate=7615.4kbits/s speed=0.0321x    frame=  442 fps=1.9 q=34.0 size=    6694kB time=00:00:07.28 bitrate=7531.7kbits/s speed=0.0321x    frame=  443 fps=1.9 q=34.0 size=    6694kB time=00:00:07.30 bitrate=7511.1kbits/s speed=0.032x    frame=  445 fps=1.9 q=34.0 size=    6694kB time=00:00:07.34 bitrate=7470.2kbits/s speed=0.032x    frame=  447 fps=1.9 q=34.0 size=    6694kB time=00:00:07.38 bitrate=7429.7kbits/s speed=0.0321x    frame=  449 fps=1.9 q=34.0 size=    6694kB time=00:00:07.42 bitrate=7389.6kbits/s speed=0.0321x    frame=  450 fps=1.9 q=34.0 size=    6694kB time=00:00:07.44 bitrate=7369.8kbits/s speed=0.0321x    frame=  451 fps=1.9 q=33.0 size=    6694kB time=00:00:07.46 bitrate=7350.0kbits/s speed=0.0321x    frame=  452 fps=1.9 q=33.0 size=    6694kB time=00:00:07.48 bitrate=7330.4kbits/s speed=0.0319x    frame=  454 fps=1.9 q=34.0 size=    6694kB time=00:00:07.52 bitrate=7291.4kbits/s speed=0.032x    frame=  457 fps=1.9 q=34.0 size=    6694kB time=00:00:07.58 bitrate=7233.7kbits/s speed=0.032x    frame=  458 fps=1.9 q=34.0 size=    6694kB time=00:00:07.60 bitrate=7214.6kbits/s speed=0.0319x    frame=  459 fps=1.9 q=33.0 size=    6694kB time=00:00:07.62 bitrate=7195.7kbits/s speed=0.0319x    frame=  463 fps=1.9 q=34.0 size=    6694kB time=00:00:07.70 bitrate=7121.0kbits/s speed=0.0319x    frame=  464 fps=1.9 q=34.0 size=    6694kB time=00:00:07.72 bitrate=7102.5kbits/s speed=0.0319x    frame=  466 fps=1.9 q=34.0 size=    6694kB time=00:00:07.76 bitrate=7065.9kbits/s speed=0.032x    frame=  469 fps=1.9 q=34.0 size=    6694kB time=00:00:07.82 bitrate=7011.7kbits/s speed=0.032x    frame=  470 fps=1.9 q=34.0 size=    6694kB time=00:00:07.84 bitrate=6993.8kbits/s speed=0.0319x    frame=  472 fps=1.9 q=34.0 size=    6694kB time=00:00:07.88 bitrate=6958.3kbits/s speed=0.0319x    frame=  474 fps=1.9 q=34.0 size=    6694kB time=00:00:07.92 bitrate=6923.2kbits/s speed=0.0319x    frame=  478 fps=1.9 q=34.0 size=    6694kB time=00:00:08.00 bitrate=6854.0kbits/s speed=0.032x    frame=  479 fps=1.9 q=34.0 size=    6694kB time=00:00:08.02 bitrate=6836.9kbits/s speed=0.0318x    frame=  481 fps=1.9 q=34.0 size=    6694kB time=00:00:08.06 bitrate=6802.9kbits/s speed=0.0318x    frame=  485 fps=1.9 q=33.0 size=    6694kB time=00:00:08.14 bitrate=6736.1kbits/s speed=0.0319x    frame=  487 fps=1.9 q=33.0 size=    6694kB time=00:00:08.18 bitrate=6703.2kbits/s speed=0.0319x    frame=  488 fps=1.9 q=33.0 size=   11847kB time=00:00:08.20 bitrate=11833.6kbits/s speed=0.0318x    frame=  490 fps=1.9 q=33.0 size=   11847kB time=00:00:08.24 bitrate=11776.1kbits/s speed=0.0318x    frame=  494 fps=1.9 q=33.0 size=   11847kB time=00:00:08.32 bitrate=11662.9kbits/s speed=0.0319x    frame=  495 fps=1.9 q=33.0 size=   11847kB time=00:00:08.34 bitrate=11634.9kbits/s speed=0.0318x    frame=  497 fps=1.9 q=33.0 size=   11847kB time=00:00:08.38 bitrate=11579.4kbits/s speed=0.0318x    frame=  500 fps=1.9 q=33.0 size=   11847kB time=00:00:08.44 bitrate=11497.1kbits/s speed=0.0318x    frame=  500 fps=1.6 q=-1.0 Lsize=   14521kB time=00:00:09.94 bitrate=11966.1kbits/s speed=0.0321x    
video:14516kB audio:0kB subtitle:0kB other streams:0kB global headers:0kB muxing overhead: 0.031026%
bench: utime=1190.060s
bench: maxrss=3698212kB
[libx264 @ 0x3cf5120] frame I:3     Avg QP:29.03  size:713288
[libx264 @ 0x3cf5120] frame P:63    Avg QP:33.13  size: 88540
[libx264 @ 0x3cf5120] frame B:434   Avg QP:35.58  size: 16466
[libx264 @ 0x3cf5120] consecutive B-frames:  0.8%  0.0%  0.0%  1.6%  4.0%  3.6% 11.2% 17.6% 61.2%
[libx264 @ 0x3cf5120] mb I  I16..4: 11.2% 84.1%  4.7%
[libx264 @ 0x3cf5120] mb P  I16..4:  0.1%  0.3%  0.0%  P16..4: 47.5%  5.8% 11.0%  0.0%  0.0%    skip:35.4%
[libx264 @ 0x3cf5120] mb B  I16..4:  0.0%  0.0%  0.0%  B16..8: 48.6%  0.4%  0.1%  direct: 0.1%  skip:50.8%  L0:51.5% L1:48.4% BI: 0.1%
[libx264 @ 0x3cf5120] final ratefactor: 25.70
[libx264 @ 0x3cf5120] 8x8 transform intra:84.1% inter:66.6%
[libx264 @ 0x3cf5120] direct mvs  spatial:99.1% temporal:0.9%
[libx264 @ 0x3cf5120] coded y,uvDC,uvAC intra: 95.9% 83.8% 68.3% inter: 2.5% 1.7% 0.0%
[libx264 @ 0x3cf5120] i16 v,h,dc,p: 13% 16% 47% 24%
[libx264 @ 0x3cf5120] i8 v,h,dc,ddl,ddr,vr,hd,vl,hu:  5%  8%  2% 13% 17% 14% 18%  9% 12%
[libx264 @ 0x3cf5120] i4 v,h,dc,ddl,ddr,vr,hd,vl,hu:  3%  4%  1% 13% 18% 14% 20% 11% 16%
[libx264 @ 0x3cf5120] i8c dc,h,v,p: 47% 25% 15% 14%
[libx264 @ 0x3cf5120] Weighted P-Frames: Y:3.2% UV:1.6%
[libx264 @ 0x3cf5120] ref P L0: 51.7% 16.3% 16.6%  3.5%  3.3%  2.2%  2.3%  0.6%  0.6%  0.5%  0.5%  0.4%  0.4%  0.4%  0.4%  0.1%
[libx264 @ 0x3cf5120] ref B L0: 73.5%  8.5%  7.1%  2.2%  2.0%  1.9%  1.7%  0.5%  0.5%  0.5%  0.5%  0.5%  0.4%  0.3%  0.1%
[libx264 @ 0x3cf5120] ref B L1: 94.2%  5.8%
[libx264 @ 0x3cf5120] kb/s:11891.25
